<?xml version="1.0" encoding="UTF-8"?>
<svg id="Layer_2" data-name="Layer 2" xmlns="http://www.w3.org/2000/svg" viewBox="0 0 133.47 154.74">
  <g id="Layer_1-2" data-name="Layer 1">
    <path d="M47.35,57.19c.04-1.44.2-3.48.72-5.86.88-4.06,2.34-6.93,3.63-9.41,1.17-2.25,2.91-5.2,5.47-8.39,1.19-1.42,2.73-3.1,3.18-2.83.46.28-.53,2.42-1.42,5.29-1.14,3.67-2.66,10.25-1.46,10.81,1.17.54,4.95-4.7,8.13-9.1,2.38-3.29,3.69-5.5,4.19-5.28.48.22-.26,2.45-1.03,6.15-.56,2.7-2.24,10.78-1.01,11.24,1.27.48,5.98-7,7.55-9.69.61-1.04,2.4-4.18,3.14-3.91.11.04.5.25.21,3.42-.24,2.63-.72,4.87-1.21,6.64-.69,2.24-1.91,5.3-3.94,8.66-.83,1.37-1.84,2.8-3.14,4.33-2.12,2.49-5.75,5.55-7.73,7.21-.95,1.03-6.09,6.77-5.2,14.61.62,5.48,4.06,11,8.54,12.99,12.65,5.6,41.71-13.43,43.43-37.44,1.08-15-8.96-25.71-9.43-26.2-5.75-5.88-14.4-10-26.64-10.46-32.71-1.24-51.41,24.11-52.11,42.36-.15,3.98.54,7.81,1.36,10.82,1.04,3.84-.42,7.92-3.7,10.17l-2.24,1.54c-5.17,3.56-12.36,1.1-14.17-4.91C.97,75.03-.22,68.85.04,62.05,1.1,34.04,25.27-1.79,74.06.07c41.21,1.57,60.43,29.08,59.37,57.1-1.34,35.26-33.91,67.56-77.09,52.24-4.62-1.64-11.98.38-13.97,4.86,0,0-15.52,34.89-15.52,34.89-1.6,3.61-5.06,5.42-8.9,5.58-8.54.35-12.7-12.66-11.12-19.43,1.82-7.81,7.19-15.08,11.49-21.66,1.69-2.58,3.49-5.1,5.15-7.71,10.45-16.36,11.99-18.85,15.84-27.8,3.6-8.37,7.2-16.03,8.03-20.95Z"/>
  </g>
</svg>